<?xml version="1.0" encoding="UTF-8"?>
<!-- Generator: https://ezgif.com/webp-to-svg -->
<svg version="1.1" xmlns="http://www.w3.org/2000/svg" width="240" height="240">
<path d="M0 0 C79.2 0 158.4 0 240 0 C240 79.2 240 158.4 240 240 C160.8 240 81.6 240 0 240 C0 160.8 0 81.6 0 0 Z " fill="#212039" transform="translate(0,0)"/>
<path d="M0 0 C3.69 3.54 5.68 6.53 6.32 11.67 C6.33 13.17 6.32 14.67 6.29 16.17 C6.29 17.4 6.29 17.4 6.29 18.67 C6.29 21.38 6.25 24.1 6.21 26.82 C6.19 28.72 6.17 30.62 6.16 32.52 C6.1 38.6 5.97 44.68 5.83 50.76 C5.8 52.31 5.8 52.31 5.76 53.9 C5.61 60.1 5.42 66.29 5.19 72.48 C5.12 74.45 5.05 76.41 4.99 78.37 C4.9 81.13 4.78 83.89 4.66 86.64 C4.64 87.45 4.61 88.26 4.59 89.09 C4.31 94.56 3.09 99.26 -0.17 103.76 C-2.86 104.82 -2.86 104.82 -5.17 104.76 C-5.5 104.43 -5.83 104.1 -6.17 103.76 C-14.15 102.52 -22.11 102.66 -30.17 102.76 C-27.8 106.17 -26.15 107.47 -22.17 108.76 C-22.36 111.06 -22.36 111.06 -23.17 113.76 C-31.06 120.08 -42.12 123.43 -52.17 122.76 C-49.39 117.64 -45.65 114.14 -41.42 110.2 C-39.18 107.77 -38.77 106.85 -38.17 103.76 C-38.94 103.76 -39.71 103.77 -40.51 103.77 C-44 103.79 -47.49 103.81 -50.98 103.82 C-52.8 103.83 -52.8 103.83 -54.66 103.85 C-55.83 103.85 -56.99 103.85 -58.19 103.86 C-59.26 103.86 -60.33 103.87 -61.44 103.87 C-64.17 103.76 -64.17 103.76 -67.17 102.76 C-67.17 102.1 -67.17 101.44 -67.17 100.76 C-68.49 100.43 -69.81 100.1 -71.17 99.76 C-70.18 102.73 -69.19 105.7 -68.17 108.76 C-69.65 108.26 -69.65 108.26 -71.17 107.76 C-72.17 105.76 -72.17 105.76 -72.17 99.76 C-76.79 99.76 -81.41 99.76 -86.17 99.76 C-88.17 95.76 -88.17 95.76 -88.17 91.76 C-82.23 91.76 -76.29 91.76 -70.17 91.76 C-70.17 91.1 -70.17 90.44 -70.17 89.76 C-69.18 89.76 -68.19 89.76 -67.17 89.76 C-66.77 88.43 -66.77 88.43 -66.36 87.07 C-65.25 83.98 -63.86 81.55 -62.17 78.76 C-60.41 73.48 -60.94 67.72 -60.93 62.23 C-60.92 60.2 -60.89 58.17 -60.86 56.13 C-60.85 54.85 -60.85 53.57 -60.84 52.25 C-60.83 51.08 -60.82 49.91 -60.81 48.7 C-61.21 45.45 -61.73 44.77 -64.17 42.76 C-64.17 42.1 -64.17 41.44 -64.17 40.76 C-64.83 40.76 -65.49 40.76 -66.17 40.76 C-65.84 38.78 -65.51 36.8 -65.17 34.76 C-71.4 33.1 -77.96 33.21 -84.17 34.76 C-83.84 31.79 -83.51 28.82 -83.17 25.76 C-82.51 25.76 -81.85 25.76 -81.17 25.76 C-79.73 18.92 -78.77 11.13 -82.17 4.76 C-64.02 -13.39 -20.28 -14 0 0 Z " fill="#B43F06" transform="translate(165.16796875,33.2421875)"/>
<path d="M0 0 C4.59 3.02 5.58 7.97 7 13 C7.66 13 8.32 13 9 13 C9.12 13.77 9.24 14.54 9.37 15.34 C9.62 16.84 9.62 16.84 9.88 18.38 C10.12 19.87 10.12 19.87 10.37 21.4 C10.8 24.14 10.8 24.14 13 26 C13 26.99 13 27.98 13 29 C13.66 29 14.32 29 15 29 C15.5 33.45 15.5 33.45 16 38 C17.3 38.09 17.3 38.09 18.62 38.19 C23.54 39.37 26.54 41.64 29.16 45.88 C31.65 51.03 32.83 56.33 34.01 61.91 C35.5 68.45 37.65 74.83 39.66 81.22 C39.96 82.18 40.26 83.14 40.57 84.13 C40.99 85.43 40.99 85.43 41.41 86.75 C42 89 42 89 42 92 C13.29 92 -15.42 92 -45 92 C-45.66 87.05 -46.32 82.1 -47 77 C-47.5 74.53 -47.5 74.53 -48 72 C-48.68 62.54 -47.3 54.15 -45 45 C-44.01 45 -43.02 45 -42 45 C-41.34 42.36 -40.68 39.72 -40 37 C-38.02 36.5 -38.02 36.5 -36 36 C-35.55 35.55 -35.09 35.09 -34.62 34.62 C-32.35 32.35 -29.94 31.26 -27 30 C-25.68 30 -24.36 30 -23 30 C-22.9 29.44 -22.79 28.89 -22.69 28.31 C-21.87 25.56 -20.54 23.41 -19 21 C-20.03 21.33 -21.06 21.66 -22.12 22 C-30.3 24.04 -39.13 24.02 -47 21 C-47 20.01 -47 19.02 -47 18 C-46.31 18 -45.62 17.99 -44.9 17.99 C-31.32 17.46 -20.71 12.53 -10.74 3.61 C-7.09 0.42 -4.86 -0.73 0 0 Z " fill="#C04202" transform="translate(150,148)"/>
<path d="M0 0 C0.66 0 1.32 0 2 0 C4.66 4.57 4.42 8.84 4 14 C3 17.62 3 17.62 2 20 C1.34 20 0.68 20 0 20 C-0.33 22.97 -0.66 25.94 -1 29 C0.32 28.34 1.64 27.68 3 27 C8.24 26.42 13.26 26.47 18 29 C17.67 30.98 17.34 32.96 17 35 C17.66 35 18.32 35 19 35 C21.66 37.66 22.9 39.36 23.5 43.1 C23.5 44.24 23.5 45.38 23.5 46.55 C23.5 48.44 23.5 48.44 23.5 50.36 C23.48 51.66 23.46 52.97 23.44 54.31 C23.44 55.61 23.45 56.9 23.46 58.23 C23.39 68.53 21.28 75.25 16 84 C15.01 84 14.02 84 13 84 C13 84.66 13 85.32 13 86 C7.06 86 1.12 86 -5 86 C-4.34 88.64 -3.68 91.28 -3 94 C1.62 94 6.24 94 11 94 C11.66 96.64 12.32 99.28 13 102 C12 98 12 98 12 94 C13.32 94.33 14.64 94.66 16 95 C16 95.66 16 96.32 16 97 C25.57 97.33 35.14 97.66 45 98 C44 103.02 43.48 104.05 40.19 107.56 C39.5 108.31 38.81 109.05 38.11 109.82 C36.09 111.9 34.06 113.96 32 116 C41.26 116.37 52.77 113.04 60 107 C60.78 104.93 60.78 104.93 61 103 C60.07 102.77 59.14 102.55 58.19 102.31 C54.44 100.77 53.87 99.47 52 96 C72.67 95.77 72.67 95.77 79.11 97.6 C81.08 98.22 81.08 98.22 83 97 C86.16 91.2 86.54 86 86.73 79.47 C86.77 78.48 86.81 77.49 86.85 76.48 C86.98 73.34 87.08 70.2 87.19 67.06 C87.27 64.93 87.35 62.79 87.44 60.65 C87.64 55.44 87.82 50.22 88 45 C88.33 45 88.66 45 89 45 C89.15 69.13 88.89 93.25 88.5 117.38 C88.49 118.11 88.48 118.84 88.46 119.6 C88.31 128.73 88.16 137.87 88 147 C86.35 147.33 84.7 147.66 83 148 C83 144.7 83 141.4 83 138 C82.34 138 81.68 138 81 138 C80.67 137.01 80.34 136.02 80 135 C79.34 135.33 78.68 135.66 78 136 C77.67 131.38 77.34 126.76 77 122 C76.34 122 75.68 122 75 122 C74.75 121.37 74.49 120.75 74.23 120.1 C73.71 118.88 73.71 118.88 73.19 117.62 C72.85 116.81 72.51 116 72.17 115.16 C71.06 112.7 71.06 112.7 68 111 C68 110.34 68 109.68 68 109 C62.47 110.24 59.38 111.99 55 115.75 C44.92 123.93 34.2 128.33 21 127 C21 127.99 21 128.98 21 130 C25.47 130.86 29.7 131.13 34.25 131.12 C35.47 131.13 36.69 131.13 37.95 131.13 C40.92 131.21 40.92 131.21 43 130 C45 129.96 47 129.96 49 130 C48.33 133.6 47.34 136.16 45 139 C37.21 143 37.21 143 33 143 C32.34 144.32 31.68 145.64 31 147 C30.01 146.67 29.02 146.34 28 146 C27.34 148.64 26.68 151.28 26 154 C25.01 154 24.02 154 23 154 C22.86 155.01 22.71 156.02 22.56 157.06 C22.23 159.42 21.86 161.78 21.44 164.12 C20.53 172.17 20.48 179.88 22.55 187.72 C23.41 192.12 23.11 196.54 23 201 C17.72 201 12.44 201 7 201 C6.89 199.22 6.79 197.43 6.68 195.59 C6.33 189.62 5.96 183.65 5.59 177.68 C5.37 174.07 5.15 170.46 4.94 166.85 C4.2 138.37 4.2 138.37 -4.19 111.62 C-8.37 102.54 -8.77 95.17 -8.17 85.3 C-7.96 81.27 -7.89 77.23 -7.82 73.19 C-7.75 69.98 -7.69 66.77 -7.62 63.56 C-7.61 62.79 -7.6 62.02 -7.58 61.22 C-7.41 52.74 -6.93 44.57 -5.48 36.19 C-4.41 29.11 -4.23 21.91 -3.88 14.76 C-3.77 12.98 -3.77 12.98 -3.66 11.16 C-3.6 10.09 -3.55 9.03 -3.49 7.93 C-2.94 4.66 -1.98 2.65 0 0 Z " fill="#521403" transform="translate(82,39)"/>
<path d="M0 0 C1.64 1.46 1.64 1.46 3.64 4.46 C2.98 4.46 2.32 4.46 1.64 4.46 C1.64 6.11 1.64 7.76 1.64 9.46 C0.98 9.46 0.32 9.46 -0.36 9.46 C-0.33 10.07 -0.3 10.67 -0.27 11.29 C0.24 21.66 0.73 32.02 0.76 42.4 C0.77 43.1 0.77 43.8 0.78 44.53 C0.77 47.81 0.57 50.94 0.13 54.19 C-0.41 58.4 -0.46 62.52 -0.39 66.76 C-0.38 68.31 -0.37 69.86 -0.35 71.41 C-0.33 73.83 -0.3 76.24 -0.27 78.65 C-0.24 81 -0.22 83.35 -0.2 85.7 C-0.18 86.78 -0.18 86.78 -0.16 87.88 C-0.14 91.58 -0.31 94.32 -2.36 97.46 C-6.99 97.49 -11.62 97.51 -16.24 97.52 C-17.82 97.52 -19.39 97.53 -20.96 97.54 C-23.23 97.55 -25.49 97.56 -27.75 97.56 C-28.46 97.57 -29.16 97.57 -29.88 97.58 C-33.19 97.58 -36.2 97.49 -39.36 96.46 C-39.69 97.78 -40.02 99.1 -40.36 100.46 C-44.56 101.66 -48.54 101.49 -52.86 101.28 C-53.62 101.26 -54.38 101.24 -55.16 101.22 C-58.85 101.04 -60.82 100.86 -63.86 98.63 C-66.08 95.44 -65.9 93.26 -65.36 89.46 C-63.49 87.03 -63.49 87.03 -61.36 85.46 C-60.7 85.46 -60.04 85.46 -59.36 85.46 C-57.3 80.31 -56.98 75.63 -56.8 70.15 C-56.49 61.59 -56.49 61.59 -55.36 60.46 C-54.97 58.95 -54.62 57.43 -54.3 55.9 C-54.12 55.08 -53.95 54.25 -53.77 53.4 C-53.63 52.76 -53.5 52.12 -53.36 51.46 C-53.03 52.12 -52.7 52.78 -52.36 53.46 C-51.37 53.46 -50.38 53.46 -49.36 53.46 C-48.52 57.11 -48.25 60.46 -48.27 64.2 C-48.27 65.27 -48.27 66.34 -48.28 67.44 C-48.28 68.54 -48.29 69.64 -48.3 70.78 C-48.31 71.9 -48.31 73.02 -48.31 74.18 C-48.33 76.94 -48.34 79.7 -48.36 82.46 C-47.04 83.12 -45.72 83.78 -44.36 84.46 C-44.36 85.45 -44.36 86.44 -44.36 87.46 C-42.05 88.12 -39.74 88.78 -37.36 89.46 C-37.36 90.12 -37.36 90.78 -37.36 91.46 C-32.41 91.46 -27.46 91.46 -22.36 91.46 C-22.36 90.8 -22.36 90.14 -22.36 89.46 C-16.61 86.46 -16.61 86.46 -14.36 86.46 C-14.1 85.93 -13.83 85.39 -13.55 84.84 C-12.69 83.13 -11.77 81.45 -10.8 79.8 C-9.11 75.87 -9.03 73.04 -9.11 68.78 C-9.13 67.47 -9.14 66.17 -9.16 64.83 C-9.22 61.47 -9.22 61.47 -10.36 58.46 C-9.7 58.46 -9.04 58.46 -8.36 58.46 C-8.5 56.69 -8.65 54.92 -8.8 53.15 C-8.88 52.17 -8.96 51.18 -9.05 50.16 C-9.28 47.37 -9.28 47.37 -10.36 44.46 C-9.37 44.46 -8.38 44.46 -7.36 44.46 C-7.36 43.14 -7.36 41.82 -7.36 40.46 C-8.68 40.46 -10 40.46 -11.36 40.46 C-11.69 39.47 -12.02 38.48 -12.36 37.46 C-14.03 36.13 -15.69 34.79 -17.36 33.46 C-17.36 32.8 -17.36 32.14 -17.36 31.46 C-23.3 30.16 -29.2 30.35 -35.24 30.4 C-36.31 30.41 -37.38 30.41 -38.48 30.42 C-41.11 30.43 -43.74 30.44 -46.36 30.46 C-46.05 29.87 -45.74 29.27 -45.43 28.65 C-43.64 24.97 -43.2 21.97 -43.05 17.92 C-43 16.85 -42.96 15.78 -42.92 14.67 C-42.88 13.55 -42.84 12.43 -42.8 11.28 C-42.76 10.15 -42.71 9.02 -42.67 7.85 C-42.56 5.05 -42.46 2.26 -42.36 -0.54 C-48.63 -1.2 -54.9 -1.86 -61.36 -2.54 C-61.36 -3.53 -61.36 -4.52 -61.36 -5.54 C-44.39 -13.49 -15.01 -10.78 0 0 Z " fill="#C84704" transform="translate(165.36328125,33.53515625)"/>
<path d="M0 0 C4.59 3.02 5.58 7.97 7 13 C7.66 13 8.32 13 9 13 C9.12 13.77 9.24 14.54 9.37 15.34 C9.53 16.34 9.7 17.34 9.88 18.38 C10.12 19.87 10.12 19.87 10.37 21.4 C10.8 24.14 10.8 24.14 13 26 C13 26.99 13 27.98 13 29 C13.66 29 14.32 29 15 29 C15.33 31.97 15.66 34.94 16 38 C17.3 38.09 17.3 38.09 18.62 38.19 C23.54 39.37 26.54 41.64 29.16 45.88 C31.65 51.03 32.83 56.33 34.01 61.91 C35.5 68.45 37.65 74.83 39.66 81.22 C39.96 82.18 40.26 83.14 40.57 84.13 C40.85 85 41.12 85.86 41.41 86.75 C42 89 42 89 42 92 C28.14 92 14.28 92 0 92 C0.06 71.31 0.06 71.31 0.09 64.81 C0.09 63.1 0.1 61.39 0.1 59.68 C0.11 58.35 0.11 58.35 0.11 57.01 C0.11 52.84 -0.07 49.08 -1 45 C-1.07 43.41 -1.09 41.82 -1.06 40.23 C-1.05 39.34 -1.05 38.45 -1.04 37.54 C-1.01 35.69 -0.99 33.85 -0.96 32.01 C-0.92 26.93 -1.11 22.02 -1.78 16.98 C-2 15 -2 15 -2 11 C-2.99 10.67 -3.98 10.34 -5 10 C-6.05 8.36 -7.05 6.7 -8 5 C-8.66 4.34 -9.32 3.68 -10 3 C-6.71 -0.04 -4.44 -0.65 0 0 Z " fill="#AA3302" transform="translate(150,148)"/>
<path d="M0 0 C1.23 -0 1.23 -0 2.48 -0.01 C3.32 -0 4.17 0.01 5.04 0.02 C5.88 0.01 6.71 0 7.58 -0.01 C13.79 0.01 18.57 0.5 23.48 4.64 C25.47 7.04 26.33 8.23 26.66 11.27 C27.98 11.27 29.3 11.27 30.66 11.27 C30.66 12.59 30.66 13.91 30.66 15.27 C30 15.6 29.34 15.93 28.66 16.27 C29.16 17.26 29.16 17.26 29.66 18.27 C29.73 20.08 29.75 21.89 29.73 23.7 C29.72 24.67 29.71 25.64 29.7 26.64 C29.69 27.5 29.68 28.37 29.66 29.27 C29.66 31.39 29.7 33.51 29.77 35.63 C29.8 36.93 29.82 38.24 29.85 39.58 C29.9 41.52 29.9 41.52 29.96 43.5 C29.55 48.74 27.75 51.93 24.48 55.95 C19.15 60.34 13.64 61.83 6.77 61.55 C2.08 60.92 -0.55 59.18 -3.59 55.64 C-7.49 48.1 -7.82 39.61 -8.46 31.27 C-8.55 30.24 -8.63 29.21 -8.72 28.15 C-10.12 10.73 -10.12 10.73 -8.34 2.27 C-5.58 0.39 -3.29 0.01 0 0 Z " fill="#932B06" transform="translate(127.3359375,62.734375)"/>
<path d="M0 0 C1.64 1.46 1.64 1.46 3.64 4.46 C2.32 4.79 1 5.12 -0.36 5.46 C-0.69 7.11 -1.02 8.76 -1.36 10.46 C-2.02 9.47 -2.68 8.48 -3.36 7.46 C-4.02 7.46 -4.68 7.46 -5.36 7.46 C-7.39 11.65 -7.55 14.97 -7.43 19.59 C-7.27 26.17 -7.27 26.17 -8.36 29.46 C-9.35 29.96 -9.35 29.96 -10.36 30.46 C-9.59 31.33 -9.59 31.33 -8.8 32.21 C-7.36 34.46 -7.36 34.46 -7.68 36.71 C-7.9 37.29 -8.13 37.87 -8.36 38.46 C-8.76 37.52 -9.15 36.57 -9.55 35.59 C-11.67 31.93 -12.54 31.85 -16.36 30.46 C-17.93 29.6 -19.49 28.72 -21.05 27.84 C-26.85 24.92 -32.16 24.22 -38.44 26.08 C-41.31 27.25 -43.79 28.75 -46.36 30.46 C-46.05 29.87 -45.74 29.27 -45.43 28.65 C-43.64 24.97 -43.2 21.97 -43.05 17.92 C-43 16.85 -42.96 15.78 -42.92 14.67 C-42.88 13.55 -42.84 12.43 -42.8 11.28 C-42.76 10.15 -42.71 9.02 -42.67 7.85 C-42.56 5.05 -42.46 2.26 -42.36 -0.54 C-48.63 -1.2 -54.9 -1.86 -61.36 -2.54 C-61.36 -3.53 -61.36 -4.52 -61.36 -5.54 C-44.39 -13.49 -15.01 -10.78 0 0 Z " fill="#EC801D" transform="translate(165.36328125,33.53515625)"/>
<path d="M0 0 C-0.25 3.37 -0.25 3.37 -1 7 C-3.06 8.44 -3.06 8.44 -5 9 C-5 9.66 -5 10.32 -5 11 C-5.66 11 -6.32 11 -7 11 C-7 11.99 -7 12.98 -7 14 C-7.66 14 -8.32 14 -9 14 C-9.12 14.8 -9.25 15.61 -9.38 16.44 C-9.58 17.28 -9.79 18.13 -10 19 C-10.66 19.33 -11.32 19.66 -12 20 C-12.27 20.82 -12.54 21.65 -12.81 22.5 C-13.2 23.32 -13.6 24.15 -14 25 C-16.62 25.81 -16.62 25.81 -19 26 C-20.03 32.7 -20.1 39.23 -20 46 C-19.01 46 -18.02 46 -17 46 C-17 45.01 -17 44.02 -17 43 C-15.52 42.5 -15.52 42.5 -14 42 C-13.99 42.75 -13.97 43.49 -13.96 44.26 C-13.88 47.63 -13.78 51 -13.69 54.38 C-13.66 55.55 -13.64 56.73 -13.62 57.94 C-13.57 59.62 -13.57 59.62 -13.51 61.34 C-13.49 62.37 -13.46 63.41 -13.43 64.48 C-13.29 65.31 -13.15 66.14 -13 67 C-11.51 67.99 -11.51 67.99 -10 69 C-9.34 66.69 -8.68 64.38 -8 62 C-7.67 62 -7.34 62 -7 62 C-7 67.61 -7 73.22 -7 79 C-16.24 79 -25.48 79 -35 79 C-35.94 71.81 -35.94 71.81 -36.23 69.58 C-36.59 66.82 -36.98 64.1 -37.55 61.38 C-39.44 51.38 -37.44 41.7 -35 32 C-34.01 32 -33.02 32 -32 32 C-31.34 29.36 -30.68 26.72 -30 24 C-28.68 23.67 -27.36 23.34 -26 23 C-25.55 22.55 -25.09 22.09 -24.62 21.62 C-22.35 19.35 -19.94 18.26 -17 17 C-15.68 17 -14.36 17 -13 17 C-12.9 16.44 -12.79 15.89 -12.69 15.31 C-11.87 12.56 -10.54 10.41 -9 8 C-10.03 8.33 -11.06 8.66 -12.12 9 C-20.3 11.04 -29.13 11.02 -37 8 C-37 7.01 -37 6.02 -37 5 C-33.04 5 -29.08 5 -25 5 C-25.99 5.5 -25.99 5.5 -27 6 C-27 6.66 -27 7.32 -27 8 C-24.6 7.74 -22.21 7.47 -19.81 7.19 C-19.14 7.12 -18.47 7.05 -17.77 6.97 C-12.67 6.35 -8.97 5.12 -5.44 1.31 C-4 0 -4 0 0 0 Z " fill="#A13001" transform="translate(140,161)"/>
<path d="M0 0 C4.37 3.15 7.97 6.78 9.69 11.94 C10.12 17.57 9.11 20.99 6.69 25.94 C7.35 26.27 8.01 26.6 8.69 26.94 C4.26 32.08 -0.9 35.37 -7.75 36.25 C-11.91 36.36 -14.64 36 -18.31 33.94 C-16.31 32.94 -16.31 32.94 -12.31 32.94 C-13.2 32.71 -14.09 32.48 -15 32.25 C-19.76 30.36 -22.38 27.85 -24.62 23.25 C-25.76 17.78 -26.29 12.39 -24.19 7.12 C-17.42 -0.77 -10.15 -3.26 0 0 Z " fill="#B85B25" transform="translate(146.3125,85.0625)"/>
<path d="M0 0 C0.33 0 0.66 0 1 0 C1.33 4.29 1.66 8.58 2 13 C2.54 12.07 3.07 11.14 3.62 10.19 C6.25 6.67 7.91 5.47 12 4 C15.88 3.43 17.65 3.83 21.19 5.56 C27.32 10.88 27.47 17.21 28.18 24.91 C27.97 28.45 27.16 30.22 25 33 C24.34 33 23.68 33 23 33 C22.73 33.64 22.46 34.28 22.19 34.94 C21 37 21 37 18 38 C13.67 38.42 10.04 38.43 6 36.75 C3.81 34.84 3.3 33.85 3 31 C3 31.99 3 32.98 3 34 C2.34 33.67 1.68 33.34 1 33 C0.34 35.64 -0.32 38.28 -1 41 C-2.05 36.78 -2.05 33.06 -1.91 28.77 C-1.89 27.98 -1.87 27.19 -1.85 26.37 C-1.8 24.71 -1.75 23.04 -1.7 21.37 C-1.62 18.81 -1.56 16.25 -1.49 13.69 C-1.45 12.07 -1.4 10.45 -1.35 8.83 C-1.33 8.06 -1.31 7.29 -1.29 6.5 C-1.12 1.12 -1.12 1.12 0 0 Z " fill="#863713" transform="translate(76,84)"/>
<path d="M0 0 C4.45 0.99 4.45 0.99 9 2 C9.33 1.34 9.66 0.68 10 0 C10.64 0.06 11.29 0.12 11.95 0.18 C19.29 0.86 26.64 1.45 34 2 C31.59 7.63 26.51 9.42 21.12 11.62 C17.91 12.64 17.91 12.64 17 15 C16.01 15.33 15.02 15.66 14 16 C13.52 18.67 13.04 21.33 12.56 24 C12.43 24.74 12.29 25.49 12.15 26.25 C11.28 31.16 10.58 36.05 10 41 C9.34 41 8.68 41 8 41 C8.31 42.98 8.62 44.96 8.94 46.94 C9.11 48.04 9.29 49.14 9.46 50.28 C9.72 52.9 9.72 52.9 11 54 C11.07 56.53 11.09 59.03 11.06 61.56 C11.06 62.27 11.05 62.98 11.05 63.72 C11.04 65.48 11.02 67.24 11 69 C8.03 69 5.06 69 2 69 C2 57.12 2 45.24 2 33 C2.66 33 3.32 33 4 33 C3.69 31.19 3.38 29.37 3.06 27.56 C2.89 26.55 2.71 25.54 2.54 24.5 C2.25 22.07 2.25 22.07 1 21 C0.84 19.44 0.75 17.87 0.68 16.31 C0.64 15.36 0.6 14.42 0.56 13.45 C0.52 12.45 0.48 11.46 0.44 10.44 C0.39 9.44 0.35 8.44 0.31 7.42 C0.2 4.94 0.1 2.47 0 0 Z " fill="#4B1001" transform="translate(91,171)"/>
<path d="M0 0 C0 0.33 0 0.66 0 1 C9.41 2.48 9.41 2.48 19 4 C19.08 7.9 19.14 11.79 19.19 15.69 C19.21 16.79 19.24 17.89 19.26 19.03 C19.27 20.1 19.28 21.16 19.29 22.26 C19.31 23.24 19.32 24.22 19.34 25.23 C18.94 28.47 17.79 30.3 16 33 C13.6 43.09 14.91 54.68 15 65 C14.67 65 14.34 65 14 65 C14 62.03 14 59.06 14 56 C13.34 56 12.68 56 12 56 C12 54.02 12 52.04 12 50 C11.34 50 10.68 50 10 50 C9.67 51.32 9.34 52.64 9 54 C7.52 53.5 7.52 53.5 6 53 C5.31 51.25 5.31 51.25 4.87 49 C4.7 48.2 4.53 47.39 4.36 46.56 C4.2 45.72 4.04 44.87 3.88 44 C3.54 42.33 3.21 40.67 2.87 39 C2.72 38.26 2.58 37.52 2.43 36.75 C2.16 34.98 2.16 34.98 1 34 C0.9 32 0.87 30 0.88 28 C0.87 26.36 0.87 26.36 0.87 24.69 C1 22 1 22 2 21 C2.1 19.09 2.13 17.17 2.12 15.25 C2.13 14.2 2.13 13.16 2.13 12.08 C2.06 8.65 2.06 8.65 1 4 C-3.62 4.33 -8.24 4.66 -13 5 C-13 4.34 -13 3.68 -13 3 C-11.21 2.3 -9.42 1.62 -7.62 0.94 C-6.63 0.55 -5.63 0.17 -4.6 -0.22 C-2 -1 -2 -1 0 0 Z " fill="#D6590B" transform="translate(104,29)"/>
<path d="M0 0 C0.33 0.66 0.66 1.32 1 2 C1.99 2 2.98 2 4 2 C4.84 5.65 5.12 9 5.1 12.74 C5.09 13.8 5.09 14.87 5.09 15.97 C5.08 17.07 5.07 18.18 5.06 19.31 C5.06 20.43 5.05 21.56 5.05 22.71 C5.04 25.48 5.02 28.24 5 31 C6.32 31.66 7.64 32.32 9 33 C9 33.99 9 34.98 9 36 C11.31 36.66 13.62 37.32 16 38 C16 38.66 16 39.32 16 40 C20.95 40 25.9 40 31 40 C31 39.34 31 38.68 31 38 C32.23 37.35 33.46 36.7 34.69 36.06 C35.71 35.52 35.71 35.52 36.76 34.97 C39 34 39 34 44 33 C44 36.63 44 40.26 44 44 C36.31 45.92 28.45 45.1 20.62 44.31 C19.95 44.26 19.27 44.21 18.57 44.15 C13.51 43.57 11.23 41.85 8 38 C5.81 41.29 5.05 44.22 4 48 C2.27 49.73 0.04 49.25 -2.31 49.31 C-5.87 49.27 -7.58 49.24 -10.69 47.44 C-12.52 44.03 -12.54 41.81 -12 38 C-10.12 35.56 -10.12 35.56 -8 34 C-7.34 34 -6.68 34 -6 34 C-3.94 28.84 -3.62 24.16 -3.44 18.69 C-3.12 10.12 -3.12 10.12 -2 9 C-1.61 7.49 -1.26 5.97 -0.94 4.44 C-0.76 3.61 -0.58 2.78 -0.4 1.93 C-0.27 1.3 -0.14 0.66 0 0 Z " fill="#E56A0E" transform="translate(112,85)"/>
<path d="M0 0 C4.38 1.09 5.88 1.8 9 5 C12.26 11.2 13.99 18.12 15.98 24.8 C17.21 28.65 18.68 32.36 20.27 36.07 C21 38 21 38 21 40 C14.07 40 7.14 40 0 40 C0 26.8 0 13.6 0 0 Z " fill="#210501" transform="translate(161,200)"/>
<path d="M0 0 C10.55 -0.25 20.57 0.32 31 2 C31 3.32 31 4.64 31 6 C30.36 6.12 29.72 6.25 29.06 6.38 C28.38 6.58 27.7 6.79 27 7 C26.67 7.66 26.34 8.32 26 9 C25.34 9 24.68 9 24 9 C22.75 12.76 22.89 16.27 22.94 20.19 C22.94 20.94 22.95 21.69 22.95 22.46 C22.96 24.31 22.98 26.15 23 28 C23.66 28.33 24.32 28.66 25 29 C25 29.99 25 30.98 25 32 C25.66 32.33 26.32 32.66 27 33 C21.06 32.34 15.12 31.68 9 31 C9 26 9 26 10 25 C10.07 22.14 10.09 19.3 10.06 16.44 C10.06 15.63 10.05 14.82 10.05 13.99 C10.04 12 10.02 10 10 8 C9.36 7.88 8.72 7.75 8.06 7.62 C7.38 7.42 6.7 7.21 6 7 C5.67 6.34 5.34 5.68 5 5 C3.02 4.27 1.02 3.6 -1 3 C-0.67 2.01 -0.34 1.02 0 0 Z " fill="#F08F27" transform="translate(118,27)"/>
<path d="M0 0 C4.77 0.51 7.73 1.81 11.69 4.5 C14.52 6.41 16.75 7.92 20 9 C20.8 11.67 21.45 14.22 22 16.94 C22.95 22.86 22.95 22.86 27 27 C27.48 29.35 27.48 29.35 27.62 32.06 C27.56 35.34 27.56 35.34 29 38 C29.04 40.33 29.04 42.67 29 45 C28.34 45 27.68 45 27 45 C22.94 36.25 19.67 27.41 17.06 18.12 C15.52 13.02 14.32 10.13 10 7 C8.68 6.34 7.36 5.68 6 5 C6 18.2 6 31.4 6 45 C3.69 45 1.38 45 -1 45 C-1.02 39.72 -1.04 34.43 -1.05 29.15 C-1.06 27.35 -1.07 25.56 -1.08 23.76 C-1.09 21.17 -1.09 18.59 -1.1 16 C-1.1 15.2 -1.11 14.41 -1.11 13.59 C-1.11 8.95 -0.77 4.57 0 0 Z " fill="#962902" transform="translate(155,195)"/>
<path d="M0 0 C0 0.66 0 1.32 0 2 C1.28 1.98 2.56 1.96 3.88 1.94 C7.75 1.88 7.75 1.88 10 3 C10.05 4.75 10.09 6.5 10.12 8.25 C10.15 9.22 10.17 10.2 10.2 11.2 C10 14.02 9.45 15.61 8 18 C6.68 18 5.36 18 4 18 C3.67 18.99 3.34 19.98 3 21 C2.34 21 1.68 21 1 21 C0.88 21.74 0.75 22.48 0.62 23.25 C0.04 25.81 -0.79 27.69 -2 30 C-1.3 30.12 -0.6 30.24 0.12 30.37 C1.03 30.53 1.94 30.7 2.88 30.88 C3.78 31.04 4.68 31.2 5.62 31.37 C8 32 8 32 10 34 C11.15 36.63 12.09 39.27 13 42 C13.99 42 14.98 42 16 42 C16.18 59.86 16.18 59.86 15 68 C14.67 68 14.34 68 14 68 C13.99 67.35 13.97 66.7 13.96 66.03 C13.88 63.08 13.78 60.13 13.69 57.19 C13.66 56.16 13.64 55.14 13.62 54.08 C13.57 52.61 13.57 52.61 13.51 51.11 C13.49 50.2 13.46 49.29 13.43 48.36 C12.92 45.59 12.06 44.83 10 43 C10 42.34 10 41.68 10 41 C9.34 41 8.68 41 8 41 C8.33 39.02 8.66 37.04 9 35 C2.77 33.34 -3.79 33.45 -10 35 C-9.5 30.55 -9.5 30.55 -9 26 C-8.34 26 -7.68 26 -7 26 C-5.56 19.16 -4.6 11.37 -8 5 C-2.25 0 -2.25 0 0 0 Z " fill="#A03105" transform="translate(91,33)"/>
<path d="M0 0 C4.41 0.31 7.33 1.35 10.62 4.38 C15.31 9.9 16.54 17 18.01 23.91 C19.5 30.45 21.65 36.83 23.66 43.22 C24.11 44.66 24.11 44.66 24.57 46.13 C24.85 47 25.12 47.86 25.41 48.75 C26 51 26 51 26 54 C23.36 54 20.72 54 18 54 C17.86 52.87 17.71 51.73 17.56 50.56 C17.39 47.19 17.39 47.19 16 46 C15.76 43.45 15.62 40.9 15.48 38.35 C15.21 35.63 15.21 35.63 12 34 C11.09 31.64 11.09 31.64 10.38 28.81 C10.12 27.83 9.87 26.85 9.61 25.83 C9.11 23.52 8.81 21.35 8.62 19 C8.32 15.86 8.32 15.86 5.81 14.38 C4.88 13.92 3.96 13.47 3 13 C0.93 11.4 -1.02 9.7 -3 8 C-2.45 4.63 -1.95 2.92 0 0 Z " fill="#C14506" transform="translate(166,186)"/>
<path d="M0 0 C3.53 0.68 5.11 2.65 7.23 5.43 C8.82 8.62 8.6 11.96 8.23 15.43 C6.61 19.07 4.78 21.56 1.23 23.43 C-2.74 23.93 -5.01 23.82 -8.59 21.99 C-11.63 18.42 -12.61 15.1 -12.77 10.43 C-11.1 2.84 -7.48 -0.22 0 0 Z " fill="#361107" transform="translate(140.7734375,89.5703125)"/>
<path d="M0 0 C1.32 0.33 2.64 0.66 4 1 C4.2 4.4 4.38 7.79 4.56 11.19 C4.65 12.63 4.65 12.63 4.73 14.1 C4.78 15.03 4.83 15.96 4.88 16.92 C4.93 17.77 4.97 18.63 5.02 19.5 C5 22.12 4.59 24.45 4 27 C4.66 27 5.32 27 6 27 C6 30.96 6 34.92 6 39 C4.68 38.67 3.36 38.34 2 38 C2 38.99 2 39.98 2 41 C-2.06 41.02 -6.11 41.04 -10.17 41.05 C-11.55 41.06 -12.93 41.07 -14.31 41.08 C-16.29 41.09 -18.28 41.09 -20.27 41.1 C-21.46 41.1 -22.65 41.11 -23.88 41.11 C-26.47 41.02 -28.55 40.77 -31 40 C-31.33 41.32 -31.66 42.64 -32 44 C-35.96 45.37 -37.33 44.78 -42 44 C-40.68 39.05 -39.36 34.1 -38 29 C-35 33 -35 33 -33.77 35.17 C-31.17 37.86 -28.31 37.93 -24.75 38.25 C-24.05 38.33 -23.35 38.4 -22.63 38.48 C-15.42 39.19 -8.24 39.19 -1 39 C-1.33 35.7 -1.66 32.4 -2 29 C-3.32 28.67 -4.64 28.34 -6 28 C-5.36 27.24 -4.72 26.47 -4.06 25.69 C-0.77 21.39 -0.85 17.7 -0.88 12.5 C-0.87 11.82 -0.87 11.15 -0.86 10.45 C-0.87 7.36 -1.02 4.95 -2 2 C-1.34 2 -0.68 2 0 2 C0 1.34 0 0.68 0 0 Z " fill="#D65509" transform="translate(157,90)"/>
<path d="M0 0 C0 0.66 0 1.32 0 2 C0.93 2.12 0.93 2.12 1.88 2.25 C4 3 4 3 5.25 5.06 C5.5 5.7 5.75 6.34 6 7 C5.34 7 4.68 7 4 7 C3.67 8.65 3.34 10.3 3 12 C2.34 11.01 1.68 10.02 1 9 C0.34 9 -0.32 9 -1 9 C-3.03 13.18 -3.18 16.51 -3.06 21.12 C-2.9 27.71 -2.9 27.71 -4 31 C-4.99 31.49 -4.99 31.49 -6 32 C-5.23 32.87 -5.23 32.87 -4.44 33.75 C-3 36 -3 36 -3.31 38.25 C-3.54 38.83 -3.77 39.41 -4 40 C-4.39 39.05 -4.78 38.1 -5.19 37.12 C-7.26 33.55 -8.21 33.23 -12 32 C-13.81 30.38 -13.81 30.38 -15 29 C-14.34 29 -13.68 29 -13 29 C-13.33 28.36 -13.66 27.72 -14 27.06 C-16.52 19.35 -14.61 12.45 -12 5 C-11.34 5.33 -10.68 5.66 -10 6 C-9.67 5.34 -9.34 4.68 -9 4 C-8.34 4 -7.68 4 -7 4 C-6.88 3.36 -6.75 2.72 -6.62 2.06 C-6.42 1.38 -6.21 0.7 -6 0 C-3.51 -1.25 -2.59 -0.78 0 0 Z " fill="#DE620B" transform="translate(161,32)"/>
<path d="M0 0 C0 1.98 0 3.96 0 6 C0.99 6 1.98 6 3 6 C3.33 5.01 3.66 4.02 4 3 C5.94 5.18 6.95 6.45 7.21 9.4 C6.77 13.45 6.27 16.48 4.38 20.12 C2 22 2 22 -1.44 22.62 C-5.83 21.85 -7.23 20.42 -10 17 C-11.73 13.54 -11.49 9.78 -11 6 C-7.85 0.97 -5.79 -0.15 0 0 Z " fill="#1F0805" transform="translate(95,94)"/>
<path d="M0 0 C0.33 0 0.66 0 1 0 C2.26 15.02 3.35 29.92 3 45 C-0.63 45 -4.26 45 -8 45 C-7.33 40.18 -6.65 35.36 -5.97 30.54 C-5.74 28.9 -5.51 27.27 -5.29 25.63 C-2 2 -2 2 0 0 Z " fill="#2D0702" transform="translate(86,195)"/>
<path d="M0 0 C0.66 0.03 1.31 0.06 1.99 0.09 C4.95 0.23 7.91 0.36 10.88 0.5 C12.42 0.57 12.42 0.57 14 0.64 C15.48 0.71 15.48 0.71 16.99 0.78 C18.36 0.84 18.36 0.84 19.75 0.91 C21.17 0.97 22.58 1 24 1 C21.59 6 19.58 8.46 14.62 11.06 C13.67 11.57 12.71 12.08 11.73 12.6 C10.83 13.06 9.93 13.52 9 14 C7.92 14.58 7.92 14.58 6.82 15.18 C4.47 16.24 2.54 16.14 0 16 C-0.33 14.68 -0.66 13.36 -1 12 C-2.32 11.67 -3.64 11.34 -5 11 C-5 8.36 -5 5.72 -5 3 C-3.02 3.66 -1.04 4.32 1 5 C0.67 3.35 0.34 1.7 0 0 Z " fill="#2F0701" transform="translate(101,140)"/>
<path d="M0 0 C6.95 6.95 10.81 19.84 11.11 29.42 C11.07 30.27 11.04 31.12 11 32 C11.66 32 12.32 32 13 32 C19.13 54.91 17.21 79.5 17 103 C16.34 103 15.68 103 15 103 C14.96 102.26 14.91 101.53 14.87 100.77 C14.45 93.74 14.03 86.71 13.59 79.68 C13.37 76.07 13.15 72.46 12.94 68.85 C12 39.97 12 39.97 3.81 12.62 C3.08 11.06 2.36 9.49 1.64 7.91 C1.33 7.25 1.01 6.59 0.69 5.91 C0 4 0 4 0 0 Z " fill="#80360F" transform="translate(74,137)"/>
<path d="M0 0 C5.04 0.44 7.38 2.71 11 6 C10.67 7.65 10.34 9.3 10 11 C9.34 11 8.68 11 8 11 C7.67 11.99 7.34 12.98 7 14 C4.32 15.16 1.77 16.12 -1 17 C-2.18 17.39 -3.35 17.78 -4.56 18.19 C-8.16 19.04 -11.32 19.15 -15 19 C-12.82 14.98 -10.26 12.18 -7 9 C-3.08 4.8 -3.08 4.8 0 0 Z " fill="#A93F11" transform="translate(128,137)"/>
<path d="M0 0 C4.38 1.09 5.88 1.8 9 5 C12.26 11.2 13.99 18.12 15.98 24.8 C17.21 28.65 18.68 32.36 20.27 36.07 C21 38 21 38 21 40 C20.01 40 19.02 40 18 40 C17.62 38.57 17.62 38.57 17.23 37.11 C16.89 35.86 16.54 34.6 16.19 33.31 C15.85 32.07 15.51 30.83 15.17 29.55 C14.1 26.31 12.8 23.87 11 21 C11 20.34 11 19.68 11 19 C10.01 18.67 9.02 18.34 8 18 C6.87 15.66 5.91 13.42 5 11 C4.34 9.35 3.68 7.7 3 6 C3 17.22 3 28.44 3 40 C2.01 40 1.02 40 0 40 C0 26.8 0 13.6 0 0 Z " fill="#591301" transform="translate(161,200)"/>
<path d="M0 0 C1.12 0.34 1.12 0.34 2.26 0.69 C2.59 2.34 2.92 3.99 3.26 5.69 C4.58 6.02 5.9 6.35 7.26 6.69 C6.93 8.01 6.6 9.33 6.26 10.69 C5.6 10.36 4.94 10.03 4.26 9.69 C0.87 9.27 -2.36 9.2 -5.74 9.69 C-8.47 12 -8.47 12 -10.74 14.69 C-16.63 17.16 -22.47 16.9 -28.74 16.69 C-28.74 16.03 -28.74 15.37 -28.74 14.69 C-28.08 14.69 -27.42 14.69 -26.74 14.69 C-26.74 14.03 -26.74 13.37 -26.74 12.69 C-25.76 12.34 -24.79 11.99 -23.78 11.62 C-16.48 8.91 -10.43 6.36 -4.67 0.91 C-2.74 -0.31 -2.74 -0.31 0 0 Z " fill="#BB4004" transform="translate(141.7421875,152.30859375)"/>
<path d="M0 0 C4.69 1.65 7.95 4.06 11 8 C11.58 12.06 11.36 14.25 9.56 17.94 C8.79 18.96 8.79 18.96 8 20 C7.67 20 7.34 20 7 20 C6.83 19.4 6.66 18.79 6.48 18.17 C4.67 11.61 4.67 11.61 0 7 C-3.1 6.46 -5.9 6.41 -9 7 C-11.57 8.81 -11.57 8.81 -13 11 C-13.66 10.67 -14.32 10.34 -15 10 C-15.33 8.67 -15.67 7.33 -16 6 C-16.66 5.67 -17.32 5.34 -18 5 C-11.77 -0.08 -8 -0.62 0 0 Z " fill="#EEC999" transform="translate(143,84)"/>
<path d="M0 0 C0.99 0.33 1.98 0.66 3 1 C3.29 8.57 3.28 15.05 0.73 22.2 C-0.86 28.29 -0.77 34.74 -1 41 C-3.97 41.5 -3.97 41.5 -7 42 C-7 41.34 -7 40.68 -7 40 C-7.66 40 -8.32 40 -9 40 C-9.49 35.37 -9.19 32.97 -6.62 29.06 C-3.31 23.64 -3 17.95 -2.4 11.78 C-1.96 7.67 -1.15 3.95 0 0 Z " fill="#F0851F" transform="translate(112,89)"/>
<path d="M0 0 C0.66 0 1.32 0 2 0 C4.66 4.57 4.42 8.84 4 14 C3 17.62 3 17.62 2 20 C1.34 20 0.68 20 0 20 C-0.33 22.97 -0.66 25.94 -1 29 C0.32 28.34 1.64 27.68 3 27 C8.24 26.42 13.26 26.47 18 29 C17.67 30.32 17.34 31.64 17 33 C17 32.34 17 31.68 17 31 C10.82 29.22 3.78 28.93 -2 32 C-2.99 32.5 -2.99 32.5 -4 33 C-4.31 5.91 -4.31 5.91 0 0 Z " fill="#591806" transform="translate(82,39)"/>
<path d="M0 0 C0.84 -0.01 1.68 -0.02 2.55 -0.04 C8.8 -0.05 13.56 0.39 18.5 4.56 C20.5 6.96 21.35 8.15 21.69 11.19 C22.68 11.19 23.67 11.19 24.69 11.19 C24.69 12.18 24.69 13.17 24.69 14.19 C20.67 12.85 17.67 10.85 14.34 8.31 C11.14 6.14 8.32 6.07 4.58 6.09 C3.11 6.09 3.11 6.09 1.6 6.1 C0.07 6.11 0.07 6.11 -1.5 6.12 C-2.54 6.13 -3.57 6.13 -4.64 6.14 C-7.2 6.15 -9.75 6.17 -12.31 6.19 C-12.31 4.54 -12.31 2.89 -12.31 1.19 C-8.19 -0.19 -4.32 0 0 0 Z " fill="#440C02" transform="translate(132.3125,62.8125)"/>
<path d="M0 0 C10.55 -0.25 20.57 0.32 31 2 C31 3.32 31 4.64 31 6 C27.37 6.33 23.74 6.66 20 7 C20 7.66 20 8.32 20 9 C12.2 8.61 6.07 6.24 -1 3 C-0.67 2.01 -0.34 1.02 0 0 Z " fill="#F7AF47" transform="translate(118,27)"/>
<path d="M0 0 C0.99 0 1.98 0 3 0 C2.34 2.97 1.68 5.94 1 9 C0.34 9 -0.32 9 -1 9 C-0.01 12.3 0.98 15.6 2 19 C1.01 18.67 0.02 18.34 -1 18 C-2 16 -2 16 -2 10 C-6.62 10 -11.24 10 -16 10 C-18 6 -18 6 -18 2 C-12.06 2 -6.12 2 0 2 C0 1.34 0 0.68 0 0 Z " fill="#B7420C" transform="translate(95,123)"/>
<path d="M0 0 C2.64 0 5.28 0 8 0 C8 6.27 8 12.54 8 19 C7.01 19.33 6.02 19.66 5 20 C4.88 20.74 4.75 21.48 4.62 22.25 C4.03 24.87 3.51 26.78 2 29 C0.68 29.33 -0.64 29.66 -2 30 C-1.5 25.55 -1.5 25.55 -1 21 C-0.34 21 0.32 21 1 21 C2.44 14.16 3.4 6.37 0 0 Z " fill="#7E2102" transform="translate(83,38)"/>
<path d="M0 0 C0 3.63 0 7.26 0 11 C-7.86 12.96 -15.3 12.32 -23 10 C-22.67 9.34 -22.34 8.68 -22 8 C-19.93 7.59 -19.93 7.59 -17.44 7.38 C-16.61 7.3 -15.78 7.23 -14.93 7.15 C-13.98 7.07 -13.98 7.07 -13 7 C-13 6.34 -13 5.68 -13 5 C-11.75 4.35 -10.5 3.7 -9.25 3.06 C-8.55 2.7 -7.86 2.34 -7.14 1.97 C-4.86 0.94 -2.54 0 0 0 Z " fill="#E97D21" transform="translate(156,118)"/>
<path d="M0 0 C5.03 2.15 7.97 5.92 11.06 10.31 C10.73 10.97 10.4 11.63 10.06 12.31 C9.59 11.89 9.12 11.47 8.64 11.04 C8.01 10.49 7.39 9.94 6.75 9.38 C6.14 8.83 5.52 8.28 4.89 7.72 C1.02 4.73 -3.27 4.98 -7.94 5.31 C-12.99 6.34 -16.12 7.85 -19.94 11.31 C-19.85 9.87 -19.74 8.44 -19.62 7 C-19.57 6.2 -19.51 5.4 -19.45 4.57 C-17.52 -3.95 -6.52 -1.14 0 0 Z " fill="#6F1605" transform="translate(142.9375,74.6875)"/>
<path d="M0 0 C1.65 0.99 3.3 1.98 5 3 C5.33 2.01 5.66 1.02 6 0 C6.14 0.64 6.29 1.28 6.44 1.94 C6.81 3.98 6.81 3.98 8 5 C8.59 12.26 8.59 12.26 6.38 15.06 C3.17 16.33 1.27 16 -2 15 C-4.49 11.26 -4.46 9.43 -4 5 C-2 2.06 -2 2.06 0 0 Z " fill="#0F0201" transform="translate(137,93)"/>
<path d="M0 0 C7.66 -0.42 13.53 2.05 19.84 6.31 C22.15 8.59 23.3 10.39 24.84 13.31 C24.84 14.3 24.84 15.29 24.84 16.31 C24.18 16.31 23.52 16.31 22.84 16.31 C22.35 14.82 22.35 14.82 21.84 13.31 C20.18 11.97 18.51 10.64 16.84 9.31 C16.84 8.65 16.84 7.99 16.84 7.31 C11.06 6.05 5.36 6.2 -0.53 6.25 C-2.06 6.25 -2.06 6.25 -3.63 6.26 C-6.14 6.27 -8.65 6.29 -11.16 6.31 C-7.36 2.2 -5.36 0.77 0 0 Z " fill="#7D240A" transform="translate(131.15625,57.69140625)"/>
<path d="M0 0 C1.64 1.46 1.64 1.46 3.64 4.46 C0.97 3.13 -1.7 1.8 -4.36 0.46 C-4.36 -0.2 -4.36 -0.86 -4.36 -1.54 C-5.35 -1.21 -6.34 -0.88 -7.36 -0.54 C-8.68 -0.54 -10 -0.54 -11.36 -0.54 C-11.86 -2.02 -11.86 -2.02 -12.36 -3.54 C-13.35 -3.54 -14.34 -3.54 -15.36 -3.54 C-16.29 -3.68 -17.22 -3.82 -18.17 -3.97 C-31.85 -6.09 -45.55 -5.72 -59.36 -5.54 C-45.03 -15.09 -13.15 -9.45 0 0 Z " fill="#D2843D" transform="translate(165.36328125,33.53515625)"/>
<path d="M0 0 C11.61 11.61 13.1 34.13 14.12 49.62 C14.21 50.85 14.29 52.08 14.38 53.35 C14.97 62.25 15.25 71.08 15 80 C14.67 80 14.34 80 14 80 C13.18 75.6 12.79 71.3 12.57 66.83 C12.5 65.44 12.43 64.04 12.35 62.65 C12.32 61.93 12.28 61.21 12.24 60.47 C11.19 40.62 9.35 24.02 0.69 5.91 C0 4 0 4 0 0 Z " fill="#9D5B36" transform="translate(74,137)"/>
<path d="M0 0 C3.17 2.4 4.19 4.2 5 8 C4.41 7.87 3.82 7.74 3.21 7.61 C0.74 7.17 -1.49 6.9 -4 7 C-7.81 9.76 -9.6 12.54 -11 17 C-11.33 17 -11.66 17 -12 17 C-12.05 15.25 -12.09 13.5 -12.12 11.75 C-12.16 10.29 -12.16 10.29 -12.2 8.8 C-12 5.95 -11.53 4.38 -10 2 C-6.79 -0.3 -3.87 -0.48 0 0 Z " fill="#CC9B5F" transform="translate(94,88)"/>
<path d="M0 0 C5.66 4.58 6.52 12.13 7.97 18.83 C9.51 25.42 11.68 31.86 13.75 38.3 C14.05 39.27 14.36 40.24 14.67 41.23 C14.95 42.1 15.23 42.97 15.52 43.87 C16 46 16 46 15 48 C14.34 47.34 13.68 46.68 13 46 C13 45.01 13 44.02 13 43 C12.34 43 11.68 43 11 43 C10.69 41.35 10.69 41.35 10.38 39.68 C10.11 38.22 9.83 36.77 9.56 35.31 C9.43 34.59 9.29 33.87 9.15 33.13 C8.46 29.41 7.75 25.7 7 22 C6.34 22 5.68 22 5 22 C3.29 16.39 2.1 10.76 1 5 C0.67 3.33 0.34 1.67 0 0 Z " fill="#9F4015" transform="translate(176,191)"/>
<path d="M0 0 C2.51 3.76 2.37 5.54 2 10 C0.81 14.06 -0.37 16.58 -4 19 C-6.32 19.39 -8.66 19.73 -11 20 C-9.92 17.76 -8.8 15.7 -7.44 13.62 C-5.84 10.72 -5.38 8.28 -5 5 C-4.34 6.32 -3.68 7.64 -3 9 C-2.01 6.03 -1.02 3.06 0 0 Z " fill="#C36F31" transform="translate(154,94)"/>
<path d="M0 0 C4.22 0.48 6.8 1.17 10 4 C9.12 8.75 9.12 8.75 8 11 C1.64 10.4 1.64 10.4 -1 8.75 C-2 7 -2 7 -1.75 4.44 C-1 2 -1 2 0 0 Z " fill="#DF6E1E" transform="translate(166,186)"/>
<path d="M0 0 C0.33 0 0.66 0 1 0 C1.33 4.29 1.66 8.58 2 13 C2.66 12.34 3.32 11.68 4 11 C4 13.31 4 15.62 4 18 C3.01 17.67 2.02 17.34 1 17 C1.14 19.08 1.29 21.17 1.44 23.25 C1.56 24.99 1.56 24.99 1.68 26.77 C1.93 29.31 2.28 31.56 3 34 C2.34 33.67 1.68 33.34 1 33 C0.34 35.64 -0.32 38.28 -1 41 C-2.05 36.78 -2.05 33.06 -1.91 28.77 C-1.89 27.98 -1.87 27.19 -1.85 26.37 C-1.8 24.71 -1.75 23.04 -1.7 21.37 C-1.62 18.81 -1.56 16.25 -1.49 13.69 C-1.45 12.07 -1.4 10.45 -1.35 8.83 C-1.33 8.06 -1.31 7.29 -1.29 6.5 C-1.12 1.12 -1.12 1.12 0 0 Z " fill="#5E3327" transform="translate(76,84)"/>
<path d="M0 0 C0.66 0 1.32 0 2 0 C2 0.66 2 1.32 2 2 C2.99 1.67 3.98 1.34 5 1 C5 3.97 5 6.94 5 10 C0.38 12.22 -2.77 13.38 -8 13 C-7.34 12.67 -6.68 12.34 -6 12 C-5.3 10.35 -4.64 8.68 -4 7 C-3.34 6.01 -2.68 5.02 -2 4 C-1.34 4 -0.68 4 0 4 C0 2.68 0 1.36 0 0 Z " fill="#E26C1B" transform="translate(128,140)"/>
<path d="M0 0 C4.79 -0.22 7.97 0.41 12.05 3.16 C14.2 5.38 16.16 7.71 18.05 10.16 C17.72 10.82 17.39 11.48 17.05 12.16 C16.72 11.17 16.39 10.18 16.05 9.16 C15.39 9.16 14.73 9.16 14.05 9.16 C14.05 8.5 14.05 7.84 14.05 7.16 C7.23 4.39 0.06 2.21 -7.16 5.02 C-8.81 5.98 -10.39 7.06 -11.95 8.16 C-12.94 8.65 -12.94 8.65 -13.95 9.16 C-12.5 5.77 -10.83 3.47 -7.95 1.16 C-5.27 0.42 -2.76 0.22 0 0 Z " fill="#CD7237" transform="translate(136.953125,78.84375)"/>
<path d="M0 0 C0.99 0 1.98 0 3 0 C4.81 1.81 4.81 1.81 6 5 C5.65 8.75 4.89 12.35 4 16 C1 15 1 15 -0.69 12.94 C-2.46 8.96 -2.36 6.34 -2 2 C-1.34 1.34 -0.68 0.68 0 0 Z " fill="#DFA459" transform="translate(124,90)"/>
<path d="M0 0 C0.33 0.66 0.66 1.32 1 2 C3.02 3.13 3.02 3.13 5 4 C5 4.66 5 5.32 5 6 C5.8 6.27 6.61 6.54 7.44 6.81 C8.61 7.2 9.79 7.6 11 8 C12.14 8.36 12.14 8.36 13.3 8.73 C14.09 8.98 14.87 9.24 15.69 9.5 C16.43 9.74 17.18 9.97 17.95 10.22 C20 11 20 11 23 13 C17.68 14.76 12.28 13.48 7 12 C3.81 9.51 2.23 7.34 0 4 C0 2.68 0 1.36 0 0 Z " fill="#AD4A0F" transform="translate(122,105)"/>
<path d="M0 0 C0.33 0 0.66 0 1 0 C1.03 1.77 1.05 3.54 1.06 5.31 C1.07 6.3 1.09 7.28 1.1 8.3 C1 11 1 11 0 14 C-0.22 16.06 -0.41 18.12 -0.56 20.19 C-0.65 21.27 -0.73 22.36 -0.82 23.48 C-0.88 24.31 -0.94 25.14 -1 26 C-1.66 26 -2.32 26 -3 26 C-3.33 24.02 -3.66 22.04 -4 20 C-5.32 19.67 -6.64 19.34 -8 19 C-7.37 18.31 -6.75 17.63 -6.11 16.92 C-3.74 13.64 -3.09 11.2 -2.31 7.25 C-1.07 1.07 -1.07 1.07 0 0 Z " fill="#E16917" transform="translate(159,99)"/>
<path d="M0 0 C0 0.66 0 1.32 0 2 C0.99 2.33 1.98 2.66 3 3 C3 3.66 3 4.32 3 5 C4.32 5.33 5.64 5.66 7 6 C7 6.99 7 7.98 7 9 C7.66 9.33 8.32 9.66 9 10 C3.06 9.34 -2.88 8.68 -9 8 C-8.67 7.01 -8.34 6.02 -8 5 C-7.01 5 -6.02 5 -5 5 C-5 4.34 -5 3.68 -5 3 C-2.46 0 -2.46 0 0 0 Z " fill="#F59F38" transform="translate(136,50)"/>
<path d="M0 0 C5.04 0.44 7.38 2.71 11 6 C10.67 7.65 10.34 9.3 10 11 C9.34 11 8.68 11 8 11 C8 11.66 8 12.32 8 13 C7.01 13 6.02 13 5 13 C4.67 10.36 4.34 7.72 4 5 C3.34 5 2.68 5 2 5 C2 4.34 2 3.68 2 3 C1.34 3 0.68 3 0 3 C0 4.32 0 5.64 0 7 C-0.66 7 -1.32 7 -2 7 C-1.12 2.25 -1.12 2.25 0 0 Z " fill="#CF5514" transform="translate(128,137)"/>
<path d="M0 0 C3.39 1.45 5.76 3.04 8 6 C8.63 10.98 8.04 13.99 5 18 C4.67 18 4.34 18 4 18 C3.47 16.25 2.95 14.5 2.44 12.75 C2.15 11.78 1.86 10.8 1.56 9.8 C1.01 7.04 1.06 5.61 2 3 C1.34 3 0.68 3 0 3 C0 2.01 0 1.02 0 0 Z " fill="#ECC28A" transform="translate(146,86)"/>
<path d="M0 0 C0.66 0.33 1.32 0.66 2 1 C1.67 1.66 1.34 2.32 1 3 C0.93 4.37 0.92 5.75 0.94 7.12 C0.96 8.4 0.98 9.68 1 11 C1.33 11 1.66 11 2 11 C2 13.97 2 16.94 2 20 C1.34 19.67 0.68 19.34 0 19 C0 18.01 0 17.02 0 16 C-0.66 16 -1.32 16 -2 16 C-2 18.31 -2 20.62 -2 23 C-2.66 22.67 -3.32 22.34 -4 22 C-4.96 19.12 -5.11 17.3 -5.06 14.31 C-5.05 13.5 -5.04 12.7 -5.04 11.86 C-5.02 11.25 -5.01 10.63 -5 10 C-4.34 10 -3.68 10 -3 10 C-2.88 8.72 -2.75 7.44 -2.62 6.12 C-2.25 2.25 -2.25 2.25 0 0 Z " fill="#AA6633" transform="translate(82,91)"/>
<path d="M0 0 C0.33 0.99 0.66 1.98 1 3 C-10.38 2.51 -10.38 2.51 -22 2 C-16.69 -3.31 -6.55 -4.01 0 0 Z " fill="#A74213" transform="translate(144,60)"/>
<path d="M0 0 C0.99 0.33 1.98 0.66 3 1 C2.33 1.65 2.33 1.65 1.64 2.32 C-1.28 5.2 -4.03 7.98 -6.44 11.31 C-9.9 14.95 -12.06 15.29 -17 16 C-19.25 15.54 -19.25 15.54 -21 15 C-19.38 14.16 -17.75 13.33 -16.12 12.5 C-15.22 12.04 -14.32 11.57 -13.38 11.09 C-11 10 -11 10 -9 10 C-8.91 9.41 -8.83 8.82 -8.74 8.21 C-7.79 5.37 -6.51 4.45 -4.12 2.69 C-3.43 2.16 -2.73 1.62 -2.01 1.07 C-1.35 0.72 -0.68 0.37 0 0 Z " fill="#D27128" transform="translate(139,152)"/>
<path d="M0 0 C0.33 0 0.66 0 1 0 C1.08 2.38 1.14 4.75 1.19 7.12 C1.21 7.79 1.24 8.46 1.26 9.14 C1.36 15.36 -0.36 19.15 -4.44 23.75 C-8.24 27.09 -9.88 28 -15 28 C-15 27.01 -15 26.02 -15 25 C-14.4 24.76 -13.79 24.52 -13.17 24.27 C-6.83 21.7 -6.83 21.7 -2 17 C-2 15.68 -2 14.36 -2 13 C-1.84 12.42 -1.67 11.84 -1.5 11.25 C-1 8.99 -0.97 7.12 -1 4.81 C-1 1 -1 1 0 0 Z " fill="#922104" transform="translate(156,95)"/>
<path d="M0 0 C1.88 0.95 3.7 2.02 5.5 3.11 C5.5 3.77 5.5 4.43 5.5 5.11 C6.16 5.11 6.82 5.11 7.5 5.11 C7.83 5.44 8.16 5.77 8.5 6.11 C8.83 5.45 9.16 4.79 9.5 4.11 C10.34 7.48 10.61 9.78 9.5 13.11 C8.9 12.18 8.3 11.25 7.69 10.29 C4.6 5.8 2.68 3.87 -2.5 2.11 C-5.23 1.83 -5.23 1.83 -8 1.92 C-8.92 1.92 -9.84 1.93 -10.78 1.94 C-13.44 2.1 -15.91 2.52 -18.5 3.11 C-14.69 -2.61 -6.09 -2.18 0 0 Z " fill="#5F1309" transform="translate(145.5,82.89453125)"/>
<path d="M0 0 C0.66 0 1.32 0 2 0 C3.1 4.41 3.08 8.48 3 13 C1.02 13.33 -0.96 13.66 -3 14 C-3.29 8.33 -3.01 5.01 0 0 Z " fill="#F79F33" transform="translate(108,117)"/>
<path d="M0 0 C2.97 0 5.94 0 9 0 C9 0.33 9 0.66 9 1 C6.36 1 3.72 1 1 1 C1.66 3.64 2.32 6.28 3 9 C7.62 9 12.24 9 17 9 C17 9.66 17 10.32 17 11 C14.37 11.03 11.75 11.05 9.12 11.06 C8.38 11.07 7.63 11.08 6.86 11.09 C1.23 11.11 1.23 11.11 -1 10 C-1.12 3.38 -1.12 3.38 0 0 Z " fill="#862403" transform="translate(76,124)"/>
<path d="M0 0 C7.2 -0.48 7.2 -0.48 10.5 1.5 C12.73 5.21 12.42 7.7 12 12 C11.34 12.66 10.68 13.32 10 14 C9.34 10.7 8.68 7.4 8 4 C7.67 4.66 7.34 5.32 7 6 C5.19 5.81 5.19 5.81 3 5 C1.25 2.44 1.25 2.44 0 0 Z " fill="#4F3C31" transform="translate(135,90)"/>
<path d="M0 0 C0 0.66 0 1.32 0 2 C-4.95 4.47 -4.95 4.47 -10 7 C-8.02 6.67 -6.04 6.34 -4 6 C-4.99 7.49 -4.99 7.49 -6 9 C-8.6 9.29 -8.6 9.29 -11.62 9.19 C-13.13 9.15 -13.13 9.15 -14.66 9.11 C-15.43 9.07 -16.21 9.04 -17 9 C-17 8.34 -17 7.68 -17 7 C-16.34 7 -15.68 7 -15 7 C-15 6.34 -15 5.68 -15 5 C-12.88 4.16 -10.75 3.33 -8.62 2.5 C-7.44 2.04 -6.26 1.57 -5.04 1.09 C-2 0 -2 0 0 0 Z " fill="#CF6012" transform="translate(130,160)"/>
<path d="M0 0 C2.77 -0.08 5.54 -0.14 8.31 -0.19 C9.1 -0.21 9.88 -0.24 10.69 -0.26 C11.45 -0.27 12.21 -0.28 12.99 -0.29 C14.03 -0.32 14.03 -0.32 15.1 -0.34 C17 0 17 0 20 3 C10.59 3.5 10.59 3.5 1 4 C0.67 2.68 0.34 1.36 0 0 Z " fill="#FDD173" transform="translate(124,28)"/>
<path d="M0 0 C1.98 0 3.96 0 6 0 C6.33 1.32 6.66 2.64 7 4 C7.66 4 8.32 4 9 4 C9 5.32 9 6.64 9 8 C8.34 7.71 7.68 7.42 7 7.12 C3.38 5.77 -0.23 4.89 -4 4 C-3.01 3.67 -2.02 3.34 -1 3 C-0.67 2.01 -0.34 1.02 0 0 Z " fill="#F8E4BC" transform="translate(139,85)"/>
<path d="M0 0 C-0.88 4.88 -0.88 4.88 -2 6 C-4 6.04 -6 6.04 -8 6 C-8 4.35 -8 2.7 -8 1 C-5.11 0.17 -3.11 0 0 0 Z " fill="#F7A63E" transform="translate(155,121)"/>
<path d="M0 0 C5.98 5.98 8.13 15 10 23 C9.34 23 8.68 23 8 23 C6.65 19.92 5.33 16.84 4 13.75 C3.62 12.88 3.24 12 2.84 11.11 C2.48 10.26 2.12 9.42 1.75 8.55 C1.41 7.77 1.08 7 0.73 6.2 C0 4 0 4 0 0 Z " fill="#7F4D3B" transform="translate(74,137)"/>
<path d="M0 0 C0.78 0.04 1.57 0.08 2.38 0.12 C3.36 2.44 4.36 4.75 5.38 7.12 C2.08 6.47 -1.22 5.81 -4.62 5.12 C-4.62 1.22 -3.96 0.19 0 0 Z " fill="#E9BF8B" transform="translate(93.625,88.875)"/>
<path d="M0 0 C1.94 1 1.94 1 4 3 C4.67 5.7 4.82 8.21 5 11 C4.01 10.01 3.02 9.02 2 8 C1.67 8.66 1.34 9.32 1 10 C0.01 10 -0.98 10 -2 10 C-2.33 8.35 -2.66 6.7 -3 5 C-1.68 5 -0.36 5 1 5 C0.67 3.35 0.34 1.7 0 0 Z " fill="#976649" transform="translate(97,90)"/>
<path d="M0 0 C5.75 1.88 5.75 1.88 8 3 C7.88 5.31 7.88 5.31 7 8 C3.94 9.81 3.94 9.81 1 11 C1 10.34 1 9.68 1 9 C1.66 9 2.32 9 3 9 C3.26 5.85 3.25 4.38 1.5 1.69 C1 1.13 0.51 0.57 0 0 Z " fill="#993009" transform="translate(135,139)"/>
<path d="M0 0 C0.33 0 0.66 0 1 0 C1.79 8.01 1.79 8.01 -1.38 12 C-4 14 -4 14 -6 15 C-5.67 11.7 -5.34 8.4 -5 5 C-4.34 6.32 -3.68 7.64 -3 9 C-2.01 6.03 -1.02 3.06 0 0 Z " fill="#D4955A" transform="translate(154,94)"/>
<path d="M0 0 C6.44 0.27 10.28 2.66 15 7 C15.33 7.66 15.66 8.32 16 9 C13.33 7.67 10.67 6.33 8 5 C8 4.34 8 3.68 8 3 C7.01 3.33 6.02 3.66 5 4 C3.68 4 2.36 4 1 4 C0.67 2.68 0.34 1.36 0 0 Z " fill="#D07430" transform="translate(153,29)"/>
<path d="M0 0 C0.33 0 0.66 0 1 0 C1.05 2.4 1.09 4.79 1.12 7.19 C1.14 7.86 1.16 8.53 1.18 9.23 C1.22 13.29 0.8 16.35 -1 20 C-2.12 18.44 -2.12 18.44 -3 16 C-2.37 13.66 -1.7 11.32 -1 9 C-0.93 7.54 -0.91 6.08 -0.94 4.62 C-0.97 2.83 -0.97 2.83 -1 1 C-0.67 0.67 -0.34 0.34 0 0 Z " fill="#AD3A09" transform="translate(156,95)"/>
<path d="M0 0 C2.76 2.76 2.58 5.21 3 9 C3.66 9 4.32 9 5 9 C5.33 10.65 5.66 12.3 6 14 C3 13 3 13 1.31 10.94 C-0.43 7.03 -0.22 4.25 0 0 Z " fill="#D1843B" transform="translate(122,92)"/>
<path d="M0 0 C0.33 0 0.66 0 1 0 C1.05 2.29 1.09 4.58 1.12 6.88 C1.15 8.15 1.17 9.43 1.2 10.74 C1 14 1 14 -1 16 C-1.33 15.67 -1.66 15.34 -2 15 C-1.94 13.04 -1.8 11.08 -1.62 9.12 C-1.53 8.06 -1.44 6.99 -1.35 5.88 C-1 3 -1 3 0 0 Z " fill="#F79E36" transform="translate(112,96)"/>
<path d="M0 0 C0.33 0 0.66 0 1 0 C1.33 4.29 1.66 8.58 2 13 C2.66 12.34 3.32 11.68 4 11 C4 13.31 4 15.62 4 18 C2.68 17.34 1.36 16.68 0 16 C0 10.72 0 5.44 0 0 Z " fill="#7D4327" transform="translate(76,84)"/>
<path d="M0 0 C0 0.66 0 1.32 0 2 C-0.59 2.11 -1.18 2.22 -1.79 2.33 C-6.41 3.26 -10.09 4.22 -14 7 C-12.99 4.34 -12.06 3.05 -9.81 1.25 C-6.38 -0.28 -3.72 -0.22 0 0 Z " fill="#743421" transform="translate(93,85)"/>
<path d="M0 0 C0.99 0.66 1.98 1.32 3 2 C3 2.66 3 3.32 3 4 C-1.29 3.34 -5.58 2.68 -10 2 C-6.31 -0.46 -4.36 -0.31 0 0 Z " fill="#7F2505" transform="translate(97,64)"/>
<path d="M0 0 C1.86 3.13 2.2 5.37 2 9 C0.68 8.67 -0.64 8.34 -2 8 C-1.12 1.12 -1.12 1.12 0 0 Z " fill="#FDC158" transform="translate(108,121)"/>
<path d="M0 0 C0 0.66 0 1.32 0 2 C-2.59 3.72 -4.04 4.45 -6.94 5.19 C-7.61 5.37 -8.28 5.55 -8.96 5.73 C-11.25 6.03 -12.82 5.69 -15 5 C-12.88 4.16 -10.75 3.33 -8.62 2.5 C-7.44 2.04 -6.26 1.57 -5.04 1.09 C-2 0 -2 0 0 0 Z " fill="#A65023" transform="translate(130,160)"/>
<path d="M0 0 C1.65 1.32 3.3 2.64 5 4 C4.67 5.65 4.34 7.3 4 9 C3.34 9 2.68 9 2 9 C1.67 9.66 1.34 10.32 1 11 C1.21 10.11 1.41 9.23 1.62 8.31 C2.03 4.77 1.57 3.13 0 0 Z " fill="#BC4109" transform="translate(134,139)"/>
<path d="M0 0 C1.98 0.5 1.98 0.5 4 1 C3.34 1 2.68 1 2 1 C2 1.66 2 2.32 2 3 C4.97 3 7.94 3 11 3 C11 3.33 11 3.66 11 4 C7.37 4 3.74 4 0 4 C0 2.68 0 1.36 0 0 Z " fill="#B4440A" transform="translate(111,166)"/>
<path d="M0 0 C2 1 2 1 3 3 C-3.75 6.87 -3.75 6.87 -6 8 C-4.56 4.63 -2.67 2.49 0 0 Z " fill="#B04E2C" transform="translate(129,80)"/>
<path d="M0 0 C1.72 5.16 2.45 7.96 0 13 C-0.33 13 -0.66 13 -1 13 C-1.03 11.21 -1.05 9.42 -1.06 7.62 C-1.07 6.63 -1.09 5.63 -1.1 4.6 C-1 2 -1 2 0 0 Z " fill="#C28746" transform="translate(83,92)"/>
</svg>
